<svg viewBox="0 0 600 400" xmlns="http://www.w3.org/2000/svg">
																																													<line style="stroke:#B7B7B7;width:2" x1="40" x2="560" y1="92.0" y2="92.0" />
																																													<line style="stroke:#B7B7B7;width:2" x1="40" x2="560" y1="144.0" y2="144.0" />
																																													<line style="stroke:#B7B7B7;width:2" x1="40" x2="560" y1="196.0" y2="196.0" />
																																													<line style="stroke:#B7B7B7;width:2" x1="40" x2="560" y1="248.0" y2="248.0" />
																																													<line style="stroke:#000000;width:2" x1="40" x2="560" y1="300.0" y2="300.0" />
																																													<rect height="0.0" style="fill:#B7B7B7" width="34.0" x="526.0" y="300.0" />
																																													<rect height="0.0" style="fill:#93C47D" width="34.0" x="526.0" y="300.0" />
																																													<rect height="0.0" style="fill:#F9CB9C" width="34.0" x="526.0" y="300.0" />
																																													<rect height="0.0" style="fill:#6D9EEB" width="34.0" x="526.0" y="300.0" />
																																													<rect height="0.0" style="fill:#B7B7B7" width="34.0" x="474.0" y="300.0" />
																																													<rect height="0.0" style="fill:#93C47D" width="34.0" x="474.0" y="300.0" />
																																													<rect height="0.0" style="fill:#F9CB9C" width="34.0" x="474.0" y="300.0" />
																																													<rect height="0.0" style="fill:#6D9EEB" width="34.0" x="474.0" y="300.0" />
																																													<rect height="0.0" style="fill:#B7B7B7" width="34.0" x="422.0" y="300.0" />
																																													<rect height="0.0" style="fill:#93C47D" width="34.0" x="422.0" y="300.0" />
																																													<rect height="0.0" style="fill:#F9CB9C" width="34.0" x="422.0" y="300.0" />
																																													<rect height="0.0" style="fill:#6D9EEB" width="34.0" x="422.0" y="300.0" />
																																													<rect height="0.0" style="fill:#B7B7B7" width="34.0" x="370.0" y="300.0" />
																																													<rect height="0.0" style="fill:#93C47D" width="34.0" x="370.0" y="300.0" />
																																													<rect height="0.0" style="fill:#F9CB9C" width="34.0" x="370.0" y="300.0" />
																																													<rect height="0.0" style="fill:#6D9EEB" width="34.0" x="370.0" y="300.0" />
																																													<rect height="69.7560975609756" style="fill:#B7B7B7" width="34.0" x="318.0" y="80.0" />
																																													<rect height="42.926829268292686" style="fill:#93C47D" width="34.0" x="318.0" y="149.7560975609756" />
																																													<rect height="0.0" style="fill:#F9CB9C" width="34.0" x="318.0" y="192.6829268292683" />
																																													<rect height="107.3170731707317" style="fill:#6D9EEB" width="34.0" x="318.0" y="192.6829268292683" />
																																													<rect height="69.7560975609756" style="fill:#B7B7B7" width="34.0" x="266.0" y="80.0" />
																																													<rect height="42.926829268292686" style="fill:#93C47D" width="34.0" x="266.0" y="149.7560975609756" />
																																													<rect height="0.0" style="fill:#F9CB9C" width="34.0" x="266.0" y="192.6829268292683" />
																																													<rect height="107.3170731707317" style="fill:#6D9EEB" width="34.0" x="266.0" y="192.6829268292683" />
																																													<rect height="69.7560975609756" style="fill:#B7B7B7" width="34.0" x="214.0" y="80.0" />
																																													<rect height="42.926829268292686" style="fill:#93C47D" width="34.0" x="214.0" y="149.7560975609756" />
																																													<rect height="0.0" style="fill:#F9CB9C" width="34.0" x="214.0" y="192.6829268292683" />
																																													<rect height="107.3170731707317" style="fill:#6D9EEB" width="34.0" x="214.0" y="192.6829268292683" />
																																													<rect height="21.463414634146343" style="fill:#B7B7B7" width="34.0" x="162.0" y="80.0" />
																																													<rect height="48.292682926829265" style="fill:#93C47D" width="34.0" x="162.0" y="101.46341463414635" />
																																													<rect height="42.926829268292686" style="fill:#F9CB9C" width="34.0" x="162.0" y="149.7560975609756" />
																																													<rect height="107.3170731707317" style="fill:#6D9EEB" width="34.0" x="162.0" y="192.6829268292683" />
																																													<rect height="0.0" style="fill:#B7B7B7" width="34.0" x="110.0" y="80.0" />
																																													<rect height="80.48780487804878" style="fill:#93C47D" width="34.0" x="110.0" y="80.0" />
																																													<rect height="16.097560975609756" style="fill:#F9CB9C" width="34.0" x="110.0" y="160.48780487804876" />
																																													<rect height="123.41463414634147" style="fill:#6D9EEB" width="34.0" x="110.0" y="176.58536585365852" />
																																													<rect height="0.0" style="fill:#B7B7B7" width="34.0" x="58.0" y="80.0" />
																																													<rect height="80.48780487804878" style="fill:#93C47D" width="34.0" x="58.0" y="80.0" />
																																													<rect height="16.097560975609756" style="fill:#F9CB9C" width="34.0" x="58.0" y="160.48780487804876" />
																																													<rect height="123.41463414634147" style="fill:#6D9EEB" width="34.0" x="58.0" y="176.58536585365852" />
</svg>