<svg viewBox="0 0 600 400" xmlns="http://www.w3.org/2000/svg">
																																										<rect height="0.0" style="fill:grey" width="38.0" x="515.0" y="300.0" />
																																										<rect height="0.0" style="fill:green" width="38.0" x="515.0" y="300.0" />
																																										<rect height="0.0" style="fill:yellow" width="38.0" x="515.0" y="300.0" />
																																										<rect height="0.0" style="fill:blue" width="38.0" x="515.0" y="300.0" />
																																										<rect height="0.0" style="fill:grey" width="38.0" x="463.0" y="300.0" />
																																										<rect height="0.0" style="fill:green" width="38.0" x="463.0" y="300.0" />
																																										<rect height="0.0" style="fill:yellow" width="38.0" x="463.0" y="300.0" />
																																										<rect height="0.0" style="fill:blue" width="38.0" x="463.0" y="300.0" />
																																										<rect height="0.0" style="fill:grey" width="38.0" x="411.0" y="300.0" />
																																										<rect height="0.0" style="fill:green" width="38.0" x="411.0" y="300.0" />
																																										<rect height="0.0" style="fill:yellow" width="38.0" x="411.0" y="300.0" />
																																										<rect height="0.0" style="fill:blue" width="38.0" x="411.0" y="300.0" />
																																										<rect height="0.0" style="fill:grey" width="38.0" x="359.0" y="300.0" />
																																										<rect height="0.0" style="fill:green" width="38.0" x="359.0" y="300.0" />
																																										<rect height="0.0" style="fill:yellow" width="38.0" x="359.0" y="300.0" />
																																										<rect height="0.0" style="fill:blue" width="38.0" x="359.0" y="300.0" />
																																										<rect height="69.7560975609756" style="fill:grey" width="38.0" x="307.0" y="80.0" />
																																										<rect height="42.926829268292686" style="fill:green" width="38.0" x="307.0" y="149.7560975609756" />
																																										<rect height="0.0" style="fill:yellow" width="38.0" x="307.0" y="192.6829268292683" />
																																										<rect height="107.3170731707317" style="fill:blue" width="38.0" x="307.0" y="192.6829268292683" />
																																										<rect height="69.7560975609756" style="fill:grey" width="38.0" x="255.0" y="80.0" />
																																										<rect height="42.926829268292686" style="fill:green" width="38.0" x="255.0" y="149.7560975609756" />
																																										<rect height="0.0" style="fill:yellow" width="38.0" x="255.0" y="192.6829268292683" />
																																										<rect height="107.3170731707317" style="fill:blue" width="38.0" x="255.0" y="192.6829268292683" />
																																										<rect height="69.7560975609756" style="fill:grey" width="38.0" x="203.0" y="80.0" />
																																										<rect height="42.926829268292686" style="fill:green" width="38.0" x="203.0" y="149.7560975609756" />
																																										<rect height="0.0" style="fill:yellow" width="38.0" x="203.0" y="192.6829268292683" />
																																										<rect height="107.3170731707317" style="fill:blue" width="38.0" x="203.0" y="192.6829268292683" />
																																										<rect height="16.097560975609756" style="fill:grey" width="38.0" x="151.0" y="80.0" />
																																										<rect height="53.65853658536585" style="fill:green" width="38.0" x="151.0" y="96.09756097560975" />
																																										<rect height="42.926829268292686" style="fill:yellow" width="38.0" x="151.0" y="149.7560975609756" />
																																										<rect height="107.3170731707317" style="fill:blue" width="38.0" x="151.0" y="192.6829268292683" />
																																										<rect height="0.0" style="fill:grey" width="38.0" x="99.0" y="80.0" />
																																										<rect height="80.48780487804878" style="fill:green" width="38.0" x="99.0" y="80.0" />
																																										<rect height="16.097560975609756" style="fill:yellow" width="38.0" x="99.0" y="160.48780487804876" />
																																										<rect height="123.41463414634147" style="fill:blue" width="38.0" x="99.0" y="176.58536585365852" />
																																										<rect height="0.0" style="fill:grey" width="38.0" x="47.0" y="80.0" />
																																										<rect height="80.48780487804878" style="fill:green" width="38.0" x="47.0" y="80.0" />
																																										<rect height="16.097560975609756" style="fill:yellow" width="38.0" x="47.0" y="160.48780487804876" />
																																										<rect height="123.41463414634147" style="fill:blue" width="38.0" x="47.0" y="176.58536585365852" />
																																										<line style="stroke:black;width:2" x1="40" x2="560" y1="300" y2="300" />
																																										<line style="stroke:black;width:2" x1="40" x2="40" y1="40" y2="300" />
</svg>